<?xml version="1.0" encoding="UTF-8"?>
<svg xmlns="http://www.w3.org/2000/svg" xmlns:xlink="http://www.w3.org/1999/xlink" width="15pt" height="15pt" viewBox="0 0 15 15" version="1.1">
<g id="surface1">
<path style=" stroke:none;fill-rule:nonzero;fill:rgb(0%,0%,0%);fill-opacity:1;" d="M 7.5 0 C 11.640625 0 15 3.359375 15 7.5 C 15 11.640625 11.640625 15 7.5 15 C 3.359375 15 0 11.640625 0 7.5 C 0 3.359375 3.359375 0 7.5 0 Z M 9.105469 4.492188 C 9.316406 4.277344 9.449219 4.105469 9.714844 4.371094 L 10.570312 5.242188 C 10.847656 5.515625 10.832031 5.675781 10.570312 5.933594 L 8.953125 7.546875 L 10.507812 9.105469 C 10.722656 9.316406 10.894531 9.449219 10.628906 9.714844 L 9.757812 10.570312 C 9.484375 10.847656 9.324219 10.832031 9.066406 10.570312 L 7.5 9 L 5.9375 10.5625 C 5.679688 10.824219 5.519531 10.839844 5.242188 10.5625 L 4.371094 9.707031 C 4.105469 9.445312 4.277344 9.3125 4.496094 9.097656 L 6.046875 7.546875 L 4.4375 5.9375 C 4.175781 5.679688 4.160156 5.519531 4.4375 5.242188 L 5.292969 4.371094 C 5.554688 4.105469 5.6875 4.277344 5.902344 4.496094 L 7.5 6.097656 Z M 9.105469 4.492188 "/>
</g>
</svg>
